<?xml version="1.0" encoding="utf-8"?>
<!-- Generator: Adobe Illustrator 24.1.2, SVG Export Plug-In . SVG Version: 6.00 Build 0)  -->
<svg version="1.1" id="Warstwa_1" xmlns="http://www.w3.org/2000/svg" xmlns:xlink="http://www.w3.org/1999/xlink" x="0px" y="0px"
	 viewBox="0 0 430 430" style="enable-background:new 0 0 430 430;" xml:space="preserve">
<style type="text/css">
	.st0{fill:#000000;}
	.st1{fill:#121331;}
	.st2{fill:#000000;}
	.st3{fill:#00A689;}
	.st4{fill:none;}
	.st5{fill:none;stroke:#121331;stroke-width:12;stroke-linecap:round;stroke-linejoin:round;stroke-miterlimit:10;}
</style>
<g>
	<path class="st1" d="M377.26,88.59c0-21.89-17.81-39.71-39.71-39.71H127.72c-21.89,0-39.71,17.81-39.71,39.71v213.38
		c-19.82,2.21-35.28,19.06-35.28,39.45c0,21.89,17.81,39.71,39.71,39.71h209.84c21.89,0,39.71-17.81,39.71-39.71v-55.44
		c0-2.16-1.16-4.16-3.05-5.22l-13.58-7.67l13.49-7.33c1.93-1.05,3.14-3.07,3.14-5.27V128.04
		C361.8,125.83,377.26,108.98,377.26,88.59z M64.74,341.41c0-15.28,12.43-27.71,27.71-27.71h0.49c0.35,0.06,0.71,0.1,1.08,0.1
		s0.73-0.04,1.08-0.1h178.78c-6.99,7.16-11.3,16.94-11.3,27.71s4.32,20.55,11.3,27.71H92.44C77.16,369.12,64.74,356.69,64.74,341.41
		z M310.12,267.7c-1.92,1.04-3.12,3.04-3.14,5.22c-0.02,2.18,1.15,4.2,3.05,5.27l19.95,11.28v51.94c0,15.28-12.43,27.71-27.71,27.71
		s-27.71-12.43-27.71-27.71s12.43-27.71,27.71-27.71c3.31,0,6-2.69,6-6s-2.69-6-6-6H100.01V88.59c0-15.28,12.43-27.71,27.71-27.71
		s27.71,12.43,27.71,27.71s-12.43,27.71-27.71,27.71c-3.31,0-6,2.69-6,6s2.69,6,6,6h202.27v128.61L310.12,267.7z M337.56,116.29
		H156.12c6.99-7.16,11.3-16.94,11.3-27.71s-4.32-20.55-11.3-27.71h181.44c15.28,0,27.71,12.43,27.71,27.71
		S352.84,116.29,337.56,116.29z"/>
	<g>
		<path class="st0" d="M146.25,178.94h137.51c3.31,0,6-2.69,6-6s-2.69-6-6-6H146.25c-3.31,0-6,2.69-6,6S142.93,178.94,146.25,178.94
			z"/>
		<path class="st0" d="M283.75,209H146.25c-3.31,0-6,2.69-6,6s2.69,6,6,6h137.51c3.31,0,6-2.69,6-6S287.07,209,283.75,209z"/>
		<path class="st0" d="M217,251.06h-70.76c-3.31,0-6,2.69-6,6s2.69,6,6,6H217c3.31,0,6-2.69,6-6S220.32,251.06,217,251.06z"/>
		<path class="st0" d="M283.75,251.06H246.2c-3.31,0-6,2.69-6,6s2.69,6,6,6h37.55c3.31,0,6-2.69,6-6S287.07,251.06,283.75,251.06z"
			/>
	</g>
</g>
</svg>
