<?xml version="1.0" encoding="utf-8"?>
<!-- Generator: Adobe Illustrator 24.1.2, SVG Export Plug-In . SVG Version: 6.00 Build 0)  -->
<svg version="1.1" id="Warstwa_3" xmlns="http://www.w3.org/2000/svg" xmlns:xlink="http://www.w3.org/1999/xlink" x="0px" y="0px"
	 viewBox="0 0 430 430" style="enable-background:new 0 0 430 430;" xml:space="preserve">
<style type="text/css">
	.st0{fill:#000000;}
	.st1{fill:#121331;}
	.st2{fill:none;stroke:#000000;stroke-width:12;stroke-linecap:round;stroke-linejoin:round;stroke-miterlimit:10;}
	.st3{fill:none;stroke:#121331;stroke-width:12;stroke-linecap:round;stroke-linejoin:round;stroke-miterlimit:10;}
	.st4{fill:#000000;}
	.st5{fill:#FFFFFF;stroke:#000000;stroke-width:12;stroke-linecap:round;stroke-linejoin:round;stroke-miterlimit:10;}
</style>
<g>
	<path class="st1" d="M228.46,299.95l-20.81-29.01c10.75-10.68,13.33-26.59,5.35-37.71c-4.48-6.24-11.48-10.02-19.73-10.65
		c-5.99-0.45-12.11,0.83-17.71,3.63l-20.81-29.01c-1.28-1.78-3.43-2.72-5.6-2.46c-2.18,0.27-4.03,1.7-4.85,3.73
		c-5.83,14.63-23.96,54.76-37.65,64.58l-33.47,24.01c-4.09,2.94-6.52,8.05-6.65,14.03c-0.06,2.98,0.44,5.96,1.4,8.69l-14.63,10.5
		c-2.69,1.93-3.31,5.68-1.38,8.37l19.06,26.57c0.93,1.29,2.33,2.16,3.9,2.42c0.32,0.05,0.65,0.08,0.97,0.08
		c1.25,0,2.47-0.39,3.5-1.13l14.6-10.48c3.98,3.15,9.08,5.13,14.02,5.13c3.27,0,6.47-0.87,9.22-2.84l5.34-3.84l34.69,34.25
		c1.16,1.14,2.68,1.73,4.22,1.73c1.15,0,2.31-0.33,3.33-1.01l27.41-18.28c1.5-1,2.47-2.62,2.64-4.42s-0.47-3.57-1.76-4.84
		l-31.89-31.49c22.87-7.91,62.42-11.07,62.86-11.1c2.16-0.17,4.06-1.49,4.97-3.45S229.72,301.71,228.46,299.95z M192.36,234.55
		c4.65,0.35,8.51,2.37,10.88,5.68c4.2,5.85,2.84,14.33-2.72,20.79l-17.84-24.86C185.84,234.87,189.15,234.31,192.36,234.55z
		 M147.81,313.15c-0.19,0.1-0.38,0.21-0.55,0.33c-0.02,0.01-0.04,0.03-0.06,0.04c-0.32,0.22-0.62,0.46-0.89,0.73
		c0,0-0.01,0.01-0.01,0.01c-0.01,0.01-0.01,0.01-0.02,0.02c-0.27,0.28-0.51,0.58-0.72,0.9c-0.02,0.03-0.04,0.06-0.06,0.09
		c-0.19,0.3-0.35,0.61-0.48,0.94c-0.02,0.05-0.03,0.09-0.05,0.14c-0.12,0.32-0.22,0.64-0.28,0.98c-0.01,0.04-0.01,0.08-0.02,0.13
		c-0.06,0.34-0.09,0.68-0.09,1.03c0,0.03,0,0.06,0,0.1c0.01,0.35,0.04,0.7,0.11,1.05c0.01,0.03,0.02,0.07,0.02,0.1
		c0.07,0.34,0.17,0.67,0.3,1c0.02,0.04,0.04,0.08,0.05,0.12c0.06,0.13,0.11,0.26,0.18,0.39c0.07,0.14,0.16,0.27,0.25,0.4
		c0.05,0.08,0.09,0.16,0.14,0.23c0.21,0.3,0.44,0.58,0.69,0.83c0.01,0.02,0.02,0.03,0.04,0.05l33.05,32.63l-17.22,11.48
		l-34.82-34.38c-0.01-0.01-0.03-0.02-0.04-0.03c-0.27-0.26-0.55-0.49-0.86-0.69c-0.03-0.02-0.06-0.04-0.09-0.06
		c-0.3-0.19-0.61-0.35-0.93-0.48c-0.04-0.02-0.08-0.04-0.12-0.05c-0.32-0.12-0.65-0.22-0.98-0.28c-0.04-0.01-0.09-0.02-0.13-0.03
		c-0.34-0.06-0.68-0.09-1.02-0.09c-0.04,0-0.08,0-0.11,0c-0.35,0-0.69,0.04-1.03,0.11c-0.04,0.01-0.07,0.01-0.11,0.02
		c-0.33,0.07-0.66,0.17-0.99,0.3c-0.04,0.02-0.09,0.03-0.13,0.05c-0.31,0.13-0.61,0.29-0.9,0.48c-0.05,0.03-0.1,0.06-0.14,0.09
		c-0.04,0.03-0.08,0.05-0.12,0.07l-9.45,6.79c-2.29,1.64-8.29-0.54-10.7-3.9c-0.24-0.34-0.51-0.64-0.8-0.91
		c-1.85-1.72-4.62-2.09-6.87-0.89c-0.24,0.13-0.47,0.26-0.7,0.42c0,0,0,0,0,0l-13.88,9.97l-12.07-16.82l13.89-9.97c0,0,0,0,0,0
		c0.84-0.6,1.48-1.39,1.9-2.26c0.04-0.09,0.08-0.18,0.12-0.27c0.04-0.09,0.08-0.17,0.11-0.26c0.05-0.13,0.09-0.27,0.13-0.41
		c0.01-0.05,0.03-0.09,0.04-0.14c0.2-0.74,0.25-1.52,0.15-2.29c0,0,0,0,0,0c-0.02-0.15-0.05-0.31-0.08-0.46
		c-0.01-0.04-0.01-0.07-0.02-0.11c-0.02-0.1-0.06-0.21-0.09-0.31c-0.02-0.08-0.04-0.17-0.07-0.25c-0.02-0.07-0.06-0.15-0.08-0.22
		c-0.04-0.11-0.08-0.22-0.13-0.33c-0.02-0.04-0.04-0.09-0.07-0.13c-0.15-0.32-0.33-0.63-0.54-0.92c-1.21-1.69-1.96-4.38-1.91-6.84
		c0.05-2.11,0.68-3.85,1.65-4.54l33.47-24.01c14.64-10.5,30.2-42.97,37.6-59.9l61.39,85.56
		C196.04,300.3,164.08,304.73,147.81,313.15z"/>
	<g>
		<g>
			<path class="st0" d="M189.98,88.17h-33.66c-3.31,0-6-2.69-6-6s2.69-6,6-6h33.66c3.31,0,6,2.69,6,6S193.29,88.17,189.98,88.17z"/>
			<path class="st1" d="M189.98,114.81h-33.66c-3.31,0-6-2.69-6-6s2.69-6,6-6h33.66c3.31,0,6,2.69,6,6S193.29,114.81,189.98,114.81z
				"/>
			<path class="st1" d="M173.64,141.44h-17.32c-3.31,0-6-2.69-6-6s2.69-6,6-6h17.32c3.31,0,6,2.69,6,6S176.95,141.44,173.64,141.44z
				"/>
		</g>
		<path class="st1" d="M211.79,168.18h-77.27c-3.31,0-6-2.69-6-6V55.43c0-3.31,2.69-6,6-6h77.27c3.31,0,6,2.69,6,6v106.75
			C217.79,165.49,215.1,168.18,211.79,168.18z M140.51,156.18h65.27V61.43h-65.27V156.18z"/>
	</g>
	<g>
		<path class="st1" d="M327.14,354.56c-28.7,0-52.06-23.35-52.06-52.06c0-28.71,23.35-52.06,52.06-52.06s52.06,23.35,52.06,52.06
			C379.2,331.21,355.85,354.56,327.14,354.56z M327.14,262.45c-22.09,0-40.06,17.97-40.06,40.06c0,22.09,17.97,40.06,40.06,40.06
			s40.06-17.97,40.06-40.06C367.2,280.42,349.23,262.45,327.14,262.45z"/>
		<path class="st0" d="M314.64,327.73c-1.04,0-2.07-0.27-3-0.8c-1.86-1.07-3-3.05-3-5.2v-38.45c0-2.14,1.14-4.12,3-5.2
			c1.86-1.07,4.14-1.07,6,0l33.3,19.22c1.86,1.07,3,3.05,3,5.2s-1.14,4.12-3,5.2l-33.3,19.22
			C316.71,327.46,315.68,327.73,314.64,327.73z M320.64,293.67v17.66l15.3-8.83L320.64,293.67z"/>
	</g>
	<g>
		<path class="st1" d="M325.78,224.26H262.5c-9.93,0-18-8.08-18-18v-63.28c0-9.93,8.07-18,18-18h63.28c9.93,0,18,8.07,18,18v63.28
			C343.78,216.19,335.71,224.26,325.78,224.26z M262.5,136.98c-3.31,0-6,2.69-6,6v63.28c0,3.31,2.69,6,6,6h63.28c3.31,0,6-2.69,6-6
			v-63.28c0-3.31-2.69-6-6-6H262.5z"/>
		<g>
			<path class="st0" d="M292.11,204.02c-3.31,0-6-2.69-6-6v-35.78c0-9.39,7.64-17.03,17.03-17.03c3.31,0,6,2.69,6,6s-2.69,6-6,6
				c-2.77,0-5.03,2.25-5.03,5.03v35.78C298.11,201.33,295.42,204.02,292.11,204.02z"/>
			<path class="st0" d="M300.1,187.38h-15.98c-3.31,0-6-2.69-6-6s2.69-6,6-6h15.98c3.31,0,6,2.69,6,6S303.41,187.38,300.1,187.38z"
				/>
		</g>
	</g>
</g>
</svg>
