<?xml version="1.0" encoding="utf-8"?>
<!-- Generator: Adobe Illustrator 24.1.2, SVG Export Plug-In . SVG Version: 6.00 Build 0)  -->
<svg version="1.1" id="Warstwa_3" xmlns="http://www.w3.org/2000/svg" xmlns:xlink="http://www.w3.org/1999/xlink" x="0px" y="0px"
	 viewBox="0 0 430 430" style="enable-background:new 0 0 430 430;" xml:space="preserve">
<style type="text/css">
	.st0{fill:#121331;}
	.st1{fill:#000000;}
	.st2{fill:#000000;}
	.st3{fill:none;stroke:#000000;stroke-width:12;stroke-linecap:round;stroke-linejoin:round;stroke-miterlimit:10;}
</style>
<g>
	<g>
		<path class="st1" d="M143,88.07h-0.14c-4.14,0-7.5-3.36-7.5-7.5s3.36-7.5,7.5-7.5H143c4.14,0,7.5,3.36,7.5,7.5
			S147.14,88.07,143,88.07z"/>
		<path class="st1" d="M86.7,88.07h-0.14c-4.14,0-7.5-3.36-7.5-7.5s3.36-7.5,7.5-7.5h0.14c4.14,0,7.5,3.36,7.5,7.5
			S90.85,88.07,86.7,88.07z"/>
		<path class="st1" d="M114.85,88.07h-0.14c-4.14,0-7.5-3.36-7.5-7.5s3.36-7.5,7.5-7.5h0.14c4.14,0,7.5,3.36,7.5,7.5
			S118.99,88.07,114.85,88.07z"/>
	</g>
	<g>
		<path class="st1" d="M259.46,293h-0.12c-3.31,0-6-2.69-6-6s2.69-6,6-6h0.12c3.31,0,6,2.69,6,6S262.78,293,259.46,293z"/>
		<path class="st1" d="M210.48,293h-0.12c-3.31,0-6-2.69-6-6s2.69-6,6-6h0.12c3.31,0,6,2.69,6,6S213.79,293,210.48,293z"/>
		<path class="st1" d="M234.97,293h-0.12c-3.31,0-6-2.69-6-6s2.69-6,6-6h0.12c3.31,0,6,2.69,6,6S238.29,293,234.97,293z"/>
	</g>
	<g>
		<path class="st0" d="M337.38,129.98H210.36c-3.31,0-6,2.69-6,6V263c0,3.31,2.69,6,6,6h0.35h76.24h25.88h24.52h0.02
			c0.25,0,0.5-0.02,0.75-0.05c0.02,0,0.05-0.01,0.07-0.01c2.93-0.4,5.19-2.9,5.19-5.94V135.98
			C343.38,132.67,340.69,129.98,337.38,129.98z M331.38,141.98v98.66l-14.03-24.29c-1.07-1.86-3.05-3-5.2-3s-4.12,1.14-5.2,3
			l-7.06,12.23l-32.93-57.03c-1.07-1.86-3.05-3-5.2-3s-4.12,1.14-5.2,3l-40.21,69.65v-99.23H331.38z M261.77,186.56l31.19,54.03
			L283.49,257H221.1L261.77,186.56z M312.83,257h-15.48l14.8-25.64l14.8,25.64H312.83z"/>
		<path class="st2" d="M302.97,189.27c-9.99,0-18.13-8.13-18.13-18.13s8.13-18.13,18.13-18.13c9.99,0,18.13,8.13,18.13,18.13
			S312.97,189.27,302.97,189.27z M302.97,165.02c-3.38,0-6.13,2.75-6.13,6.13s2.75,6.13,6.13,6.13s6.13-2.75,6.13-6.13
			S306.35,165.02,302.97,165.02z"/>
	</g>
	<path class="st0" d="M337.35,322H210.36c-3.31,0-6-2.69-6-6s2.69-6,6-6h126.99c3.31,0,6,2.69,6,6S340.66,322,337.35,322z"/>
	<path class="st0" d="M273.86,349h-63.49c-3.31,0-6-2.69-6-6s2.69-6,6-6h63.49c3.31,0,6,2.69,6,6S277.17,349,273.86,349z"/>
	<path class="st0" d="M352.71,48.88H77.29c-15.66,0-28.41,12.74-28.41,28.41v275.42c0,15.66,12.74,28.41,28.41,28.41h275.42
		c15.66,0,28.41-12.74,28.41-28.41V77.29C381.12,61.62,368.38,48.88,352.71,48.88z M77.29,60.88h275.42
		c9.05,0,16.41,7.36,16.41,16.41v22.97H60.88V77.29C60.88,68.24,68.24,60.88,77.29,60.88z M60.88,352.71V112.25h105.8v256.87h-89.4
		C68.24,369.12,60.88,361.76,60.88,352.71z M352.71,369.12H178.69V112.25h190.43v240.46C369.12,361.76,361.76,369.12,352.71,369.12z
		"/>
	<path class="st0" d="M112.29,208.91c-22.05,0-39.99-17.94-39.99-39.99s17.94-39.99,39.99-39.99s39.99,17.94,39.99,39.99
		S134.34,208.91,112.29,208.91z M112.29,140.94c-15.43,0-27.99,12.55-27.99,27.99s12.55,27.99,27.99,27.99s27.99-12.55,27.99-27.99
		S127.72,140.94,112.29,140.94z"/>
	<path class="st2" d="M143,239.1H81.57c-3.31,0-6-2.69-6-6s2.69-6,6-6H143c3.31,0,6,2.69,6,6S146.31,239.1,143,239.1z"/>
	<path class="st0" d="M143,266.73h-40.5c-3.31,0-6-2.69-6-6s2.69-6,6-6H143c3.31,0,6,2.69,6,6S146.31,266.73,143,266.73z"/>
	<path class="st0" d="M82.38,266.73h-0.81c-3.31,0-6-2.69-6-6s2.69-6,6-6h0.81c3.31,0,6,2.69,6,6S85.69,266.73,82.38,266.73z"/>
	<path class="st0" d="M143,294.37H81.57c-3.31,0-6-2.69-6-6s2.69-6,6-6H143c3.31,0,6,2.69,6,6S146.31,294.37,143,294.37z"/>
	<path class="st0" d="M143,322H81.57c-3.31,0-6-2.69-6-6s2.69-6,6-6H143c3.31,0,6,2.69,6,6S146.31,322,143,322z"/>
</g>
</svg>
