<?xml version="1.0" encoding="utf-8"?>
<!-- Generator: Adobe Illustrator 24.1.2, SVG Export Plug-In . SVG Version: 6.00 Build 0)  -->
<svg version="1.1" id="Warstwa_1" xmlns="http://www.w3.org/2000/svg" xmlns:xlink="http://www.w3.org/1999/xlink" x="0px" y="0px"
	 viewBox="0 0 430 430" style="enable-background:new 0 0 430 430;" xml:space="preserve">
<style type="text/css">
	.st0{fill:#121331;}
	.st1{fill:#000000;}
	.st2{fill:none;stroke:#121331;stroke-width:12;stroke-linecap:round;stroke-linejoin:round;stroke-miterlimit:10;}
	.st3{fill:#00A689;}
</style>
<g>
	<g>
		<path class="st0" d="M352.71,48.88H77.29c-15.66,0-28.41,12.74-28.41,28.41v275.42c0,15.66,12.74,28.41,28.41,28.41h275.42
			c15.66,0,28.41-12.74,28.41-28.41V77.29C381.12,61.62,368.38,48.88,352.71,48.88z M369.12,352.71c0,9.05-7.36,16.41-16.41,16.41
			H77.29c-9.05,0-16.41-7.36-16.41-16.41V112.25h308.24V352.71z M369.12,100.25H60.88V77.29c0-9.05,7.36-16.41,16.41-16.41h275.42
			c9.05,0,16.41,7.36,16.41,16.41V100.25z"/>
		<path class="st0" d="M95.04,163.44h92.83c3.31,0,6-2.69,6-6s-2.69-6-6-6H95.04c-3.31,0-6,2.69-6,6S91.72,163.44,95.04,163.44z"/>
		<path class="st0" d="M95.04,203.78h92.83c3.31,0,6-2.69,6-6s-2.69-6-6-6H95.04c-3.31,0-6,2.69-6,6S91.72,203.78,95.04,203.78z"/>
		<path class="st0" d="M95.04,244.11h92.83c3.31,0,6-2.69,6-6s-2.69-6-6-6H95.04c-3.31,0-6,2.69-6,6S91.72,244.11,95.04,244.11z"/>
		<path class="st0" d="M95.04,284.44h46.42c3.31,0,6-2.69,6-6s-2.69-6-6-6H95.04c-3.31,0-6,2.69-6,6S91.72,284.44,95.04,284.44z"/>
	</g>
	<g>
		<path class="st1" d="M143,73.07h-0.14c-4.14,0-7.5,3.36-7.5,7.5s3.36,7.5,7.5,7.5H143c4.14,0,7.5-3.36,7.5-7.5
			S147.14,73.07,143,73.07z"/>
		<path class="st1" d="M86.7,73.07h-0.14c-4.14,0-7.5,3.36-7.5,7.5s3.36,7.5,7.5,7.5h0.14c4.14,0,7.5-3.36,7.5-7.5
			S90.85,73.07,86.7,73.07z"/>
		<path class="st1" d="M114.85,73.07h-0.14c-4.14,0-7.5,3.36-7.5,7.5s3.36,7.5,7.5,7.5h0.14c4.14,0,7.5-3.36,7.5-7.5
			S118.99,73.07,114.85,73.07z"/>
		<path class="st1" d="M340.96,155.61c0-0.12-0.01-0.23-0.02-0.35c-0.01-0.09-0.01-0.18-0.02-0.26c-0.01-0.1-0.03-0.19-0.04-0.28
			c-0.02-0.1-0.03-0.21-0.06-0.31c-0.02-0.08-0.04-0.15-0.06-0.23c-0.03-0.11-0.06-0.23-0.1-0.34c-0.02-0.07-0.05-0.14-0.08-0.21
			c-0.04-0.11-0.08-0.22-0.13-0.33c-0.03-0.08-0.07-0.16-0.11-0.23c-0.04-0.09-0.09-0.19-0.14-0.27c-0.05-0.1-0.11-0.19-0.17-0.28
			c-0.04-0.07-0.08-0.14-0.13-0.2c-0.07-0.1-0.14-0.2-0.22-0.29c-0.04-0.05-0.08-0.11-0.13-0.16c-0.08-0.09-0.16-0.18-0.24-0.27
			c-0.05-0.05-0.1-0.11-0.15-0.16c-0.08-0.08-0.16-0.15-0.24-0.22c-0.07-0.06-0.14-0.12-0.21-0.18c-0.07-0.06-0.14-0.11-0.22-0.16
			c-0.09-0.07-0.18-0.13-0.28-0.19c-0.03-0.02-0.05-0.03-0.07-0.05c-0.04-0.03-0.09-0.05-0.14-0.08c-0.1-0.06-0.21-0.12-0.31-0.17
			c-0.07-0.04-0.15-0.07-0.22-0.11c-0.1-0.05-0.21-0.09-0.31-0.13c-0.08-0.03-0.17-0.06-0.25-0.09c-0.1-0.03-0.19-0.06-0.29-0.09
			c-0.1-0.03-0.19-0.05-0.29-0.08c-0.09-0.02-0.18-0.04-0.27-0.06c-0.11-0.02-0.22-0.04-0.33-0.05c-0.08-0.01-0.16-0.02-0.25-0.03
			c-0.12-0.01-0.24-0.02-0.36-0.02c-0.05,0-0.1-0.01-0.15-0.01h-111.4c-0.05,0-0.1,0.01-0.16,0.01c-0.12,0-0.23,0.01-0.35,0.02
			c-0.09,0.01-0.17,0.02-0.25,0.03c-0.11,0.01-0.22,0.03-0.32,0.05c-0.09,0.02-0.19,0.04-0.28,0.06c-0.1,0.02-0.19,0.05-0.29,0.07
			c-0.1,0.03-0.2,0.06-0.3,0.09c-0.08,0.03-0.17,0.06-0.25,0.09c-0.11,0.04-0.21,0.09-0.31,0.14c-0.07,0.03-0.15,0.07-0.22,0.11
			c-0.11,0.05-0.21,0.11-0.31,0.18c-0.04,0.03-0.09,0.05-0.14,0.08c-0.03,0.02-0.05,0.03-0.07,0.05c-0.09,0.06-0.19,0.13-0.28,0.19
			c-0.07,0.05-0.15,0.11-0.22,0.16c-0.07,0.06-0.14,0.12-0.21,0.18c-0.08,0.07-0.16,0.14-0.24,0.22c-0.05,0.05-0.1,0.11-0.15,0.16
			c-0.08,0.09-0.17,0.18-0.24,0.27c-0.04,0.05-0.09,0.11-0.13,0.16c-0.08,0.1-0.15,0.19-0.22,0.29c-0.05,0.07-0.09,0.14-0.13,0.2
			c-0.06,0.09-0.12,0.18-0.17,0.28c-0.05,0.09-0.09,0.18-0.14,0.27c-0.04,0.08-0.08,0.16-0.11,0.23c-0.05,0.11-0.09,0.22-0.13,0.33
			c-0.03,0.07-0.05,0.14-0.08,0.21c-0.04,0.11-0.07,0.23-0.1,0.34c-0.02,0.08-0.04,0.15-0.06,0.23c-0.02,0.1-0.04,0.21-0.06,0.31
			c-0.02,0.09-0.03,0.19-0.04,0.28c-0.01,0.09-0.02,0.18-0.02,0.26c-0.01,0.12-0.02,0.23-0.02,0.35c0,0.03,0,0.06,0,0.09v177.75
			c0,0.03,0,0.06,0,0.09c0,0.12,0.01,0.23,0.02,0.35c0.01,0.09,0.01,0.18,0.02,0.26c0.01,0.09,0.03,0.19,0.04,0.28
			c0.02,0.1,0.03,0.21,0.06,0.31c0.02,0.08,0.04,0.15,0.06,0.22c0.03,0.11,0.06,0.23,0.1,0.34c0.02,0.07,0.05,0.14,0.08,0.21
			c0.04,0.11,0.08,0.22,0.13,0.33c0.03,0.08,0.07,0.15,0.11,0.23c0.05,0.09,0.09,0.19,0.14,0.28c0.05,0.09,0.11,0.18,0.17,0.28
			c0.04,0.07,0.08,0.14,0.13,0.21c0.07,0.1,0.14,0.2,0.22,0.29c0.04,0.06,0.08,0.11,0.13,0.17c0.08,0.09,0.16,0.18,0.24,0.27
			c0.05,0.05,0.1,0.11,0.16,0.16c0.08,0.07,0.16,0.15,0.24,0.22c0.07,0.06,0.14,0.12,0.21,0.18c0.07,0.06,0.14,0.11,0.22,0.16
			c0.09,0.07,0.18,0.13,0.28,0.19c0.03,0.02,0.05,0.03,0.07,0.05c0.03,0.02,0.06,0.03,0.09,0.05c0.19,0.12,0.39,0.22,0.6,0.32
			c0.04,0.02,0.07,0.04,0.11,0.05c0.23,0.1,0.46,0.18,0.7,0.25c0.06,0.02,0.13,0.03,0.19,0.05c0.18,0.05,0.36,0.08,0.54,0.11
			c0.08,0.01,0.16,0.03,0.23,0.04c0.21,0.03,0.43,0.04,0.65,0.04c0.02,0,0.05,0,0.07,0c0.01,0,0.01,0,0.02,0h111.38
			c0.01,0,0.01,0,0.02,0c0.02,0,0.05,0,0.07,0c0.22,0,0.44-0.02,0.65-0.04c0.08-0.01,0.16-0.02,0.23-0.04
			c0.18-0.03,0.36-0.07,0.54-0.11c0.06-0.02,0.13-0.03,0.19-0.05c0.24-0.07,0.47-0.15,0.7-0.25c0.04-0.02,0.07-0.04,0.11-0.05
			c0.21-0.09,0.4-0.2,0.59-0.32c0.03-0.02,0.06-0.03,0.09-0.05c0.03-0.02,0.05-0.03,0.07-0.05c0.09-0.06,0.19-0.13,0.28-0.19
			c0.07-0.05,0.15-0.11,0.22-0.16c0.07-0.06,0.14-0.12,0.21-0.18c0.08-0.07,0.16-0.14,0.24-0.22c0.05-0.05,0.1-0.11,0.16-0.16
			c0.08-0.09,0.17-0.18,0.24-0.27c0.05-0.05,0.09-0.11,0.13-0.17c0.07-0.1,0.15-0.19,0.22-0.29c0.05-0.07,0.09-0.14,0.13-0.21
			c0.06-0.09,0.12-0.18,0.17-0.28c0.05-0.09,0.09-0.18,0.14-0.28c0.04-0.08,0.08-0.15,0.11-0.23c0.05-0.11,0.09-0.22,0.13-0.33
			c0.02-0.07,0.05-0.14,0.08-0.21c0.04-0.11,0.07-0.23,0.1-0.34c0.02-0.07,0.04-0.15,0.06-0.22c0.02-0.1,0.04-0.21,0.06-0.31
			c0.02-0.09,0.03-0.19,0.04-0.28c0.01-0.09,0.02-0.18,0.02-0.26c0.01-0.12,0.02-0.23,0.02-0.35c0-0.03,0-0.06,0-0.09V155.69
			C340.96,155.66,340.96,155.64,340.96,155.61z M324.12,161.69l-44.86,71.58l-44.86-71.58H324.12z M229.57,176.57l42.62,68
			l-42.62,68V176.57z M234.41,327.44l44.86-71.58l44.86,71.58H234.41z M328.96,312.57l-42.62-68l42.62-68V312.57z"/>
	</g>
</g>
</svg>
