<?xml version="1.0" encoding="utf-8"?>
<!-- Generator: Adobe Illustrator 24.1.2, SVG Export Plug-In . SVG Version: 6.00 Build 0)  -->
<svg version="1.1" id="Warstwa_1" xmlns="http://www.w3.org/2000/svg" xmlns:xlink="http://www.w3.org/1999/xlink" x="0px" y="0px"
	 viewBox="0 0 430 430" style="enable-background:new 0 0 430 430;" xml:space="preserve">
<style type="text/css">
	.st0{fill:#121331;}
	.st1{fill:#000000;}
	.st2{fill:none;stroke:#121331;stroke-width:12;stroke-linecap:round;stroke-linejoin:round;stroke-miterlimit:10;}
	.st3{fill:#00A689;}
</style>
<g>
	<g>
		<path class="st0" d="M289.73,48.88H140.27c-9.92,0-18,8.07-18,18v296.24c0,9.92,8.08,18,18,18h149.46c9.92,0,18-8.08,18-18V66.88
			C307.73,56.96,299.66,48.88,289.73,48.88z M242.29,60.88l-1.25,2.44c-0.41,0.35-2,1.15-4.5,1.15h-43.07c-2.5,0-4.09-0.79-4.5-1.15
			l-1.25-2.44H242.29z M295.73,363.12c0,3.31-2.69,6-6,6H140.27c-3.31,0-6-2.69-6-6V66.88c0-3.31,2.69-6,6-6h27.97
			c4.12,0,6.71,1.53,7.1,2.15l3.03,5.92c2.34,4.57,8.27,7.52,15.1,7.52h43.07c6.83,0,12.76-2.95,15.1-7.52l3.02-5.9
			c0.39-0.64,2.99-2.17,7.1-2.17h27.97c3.31,0,6,2.69,6,6V363.12z"/>
		<path class="st0" d="M255.03,224.55h-80.06c-3.31,0-6,2.69-6,6s2.69,6,6,6h80.06c3.31,0,6-2.69,6-6S258.34,224.55,255.03,224.55z"
			/>
		<path class="st0" d="M255.03,257.97h-80.06c-3.31,0-6,2.69-6,6s2.69,6,6,6h80.06c3.31,0,6-2.69,6-6S258.34,257.97,255.03,257.97z"
			/>
		<path class="st0" d="M255.03,291.38h-80.06c-3.31,0-6,2.69-6,6s2.69,6,6,6h80.06c3.31,0,6-2.69,6-6S258.34,291.38,255.03,291.38z"
			/>
	</g>
	<g>
		<path class="st1" d="M254.74,349.47h-79.48c-3.31,0-6,2.69-6,6s2.69,6,6,6h79.48c3.31,0,6-2.69,6-6S258.05,349.47,254.74,349.47z"
			/>
		<path class="st1" d="M255.03,122.21h-80.06c-3.31,0-6,2.69-6,6v66.83c0,3.31,2.69,6,6,6h80.06c3.31,0,6-2.69,6-6v-66.83
			C261.03,124.9,258.34,122.21,255.03,122.21z M249.03,189.04h-68.06v-54.83h68.06V189.04z"/>
	</g>
</g>
</svg>
