<?xml version="1.0" encoding="utf-8"?>
<!-- Generator: Adobe Illustrator 24.1.2, SVG Export Plug-In . SVG Version: 6.00 Build 0)  -->
<svg version="1.1" id="Warstwa_3" xmlns="http://www.w3.org/2000/svg" xmlns:xlink="http://www.w3.org/1999/xlink" x="0px" y="0px"
	 viewBox="0 0 430 430" style="enable-background:new 0 0 430 430;" xml:space="preserve">
<style type="text/css">
	.st0{fill:#121331;}
	.st1{fill:#000000;}
	.st2{fill:#000000;}
	.st3{fill:none;stroke:#000000;stroke-width:12;stroke-linecap:round;stroke-linejoin:round;stroke-miterlimit:10;}
</style>
<g>
	<path class="st1" d="M300.09,152.01c0-0.02,0-0.04,0-0.05c0.01-0.18,0.01-0.35,0-0.53c0-0.02,0-0.03,0-0.05
		c-0.01-0.18-0.03-0.35-0.05-0.53c0-0.02-0.01-0.03-0.01-0.05c-0.03-0.18-0.06-0.36-0.11-0.53c0-0.01-0.01-0.02-0.01-0.04
		c-0.05-0.18-0.1-0.36-0.17-0.54c0,0,0-0.01-0.01-0.01c-0.18-0.5-0.42-0.98-0.73-1.42c-0.04-0.06-0.09-0.11-0.13-0.17
		c-0.01-0.01-0.01-0.01-0.02-0.02c-0.12-0.15-0.24-0.29-0.36-0.43c-0.01-0.01-0.03-0.03-0.04-0.04c-0.12-0.13-0.25-0.25-0.38-0.37
		c-0.02-0.02-0.04-0.03-0.06-0.05c-0.13-0.11-0.26-0.21-0.39-0.31c-0.02-0.02-0.05-0.03-0.07-0.05c-0.14-0.1-0.27-0.19-0.42-0.27
		c-0.02-0.01-0.05-0.03-0.07-0.04c-0.15-0.08-0.3-0.16-0.45-0.23c-0.02-0.01-0.04-0.02-0.06-0.03c-0.16-0.07-0.32-0.13-0.48-0.19
		c-0.02-0.01-0.04-0.01-0.06-0.02c-0.16-0.05-0.33-0.1-0.49-0.14c-0.02-0.01-0.04-0.01-0.07-0.01c-0.11-0.03-0.22-0.06-0.33-0.07
		l-20.61-3.55c-3.26-0.56-6.37,1.63-6.93,4.89c-0.56,3.27,1.63,6.37,4.89,6.93l4.91,0.85l-147.58,90.41
		c-2.83,1.73-3.71,5.42-1.98,8.25c1.13,1.85,3.1,2.87,5.12,2.87c1.07,0,2.15-0.29,3.13-0.88l149.87-91.82l-1.3,7.55
		c-0.56,3.27,1.63,6.37,4.89,6.93c0.34,0.06,0.69,0.09,1.03,0.09c2.87,0,5.4-2.06,5.91-4.98l3.55-20.61
		c0.01-0.05,0.01-0.11,0.02-0.16c0-0.02,0.01-0.05,0.01-0.07C300.07,152.35,300.09,152.18,300.09,152.01z"/>
	<path class="st1" d="M161.69,340.09h-28.75c-3.31,0-6-2.69-6-6V294.9c0-3.31,2.69-6,6-6h28.75c3.31,0,6,2.69,6,6v39.19
		C167.69,337.4,165,340.09,161.69,340.09z M138.94,328.09h16.75V300.9h-16.75V328.09z"/>
	<path class="st1" d="M228.03,340.09h-28.75c-3.31,0-6-2.69-6-6V255.7c0-3.31,2.69-6,6-6h28.75c3.31,0,6,2.69,6,6v78.39
		C234.03,337.4,231.34,340.09,228.03,340.09z M205.28,328.09h16.75V261.7h-16.75V328.09z"/>
	<path class="st1" d="M294.37,340.09h-28.75c-3.31,0-6-2.69-6-6V214.88c0-3.31,2.69-6,6-6h28.75c3.31,0,6,2.69,6,6v119.21
		C300.37,337.4,297.69,340.09,294.37,340.09z M271.63,328.09h16.75V220.88h-16.75V328.09z"/>
	<path class="st0" d="M352.71,48.88H77.29c-15.66,0-28.41,12.74-28.41,28.41v275.42c0,15.66,12.74,28.41,28.41,28.41h275.42
		c15.66,0,28.41-12.74,28.41-28.41V77.29C381.12,61.62,368.38,48.88,352.71,48.88z M77.29,60.88h275.42
		c9.05,0,16.41,7.36,16.41,16.41v22.97H60.88V77.29C60.88,68.24,68.24,60.88,77.29,60.88z M352.71,369.12H77.29
		c-9.05,0-16.41-7.36-16.41-16.41V112.25h308.24v240.46C369.12,361.76,361.76,369.12,352.71,369.12z"/>
	<g>
		<path class="st1" d="M143,88.07h-0.14c-4.14,0-7.5-3.36-7.5-7.5s3.36-7.5,7.5-7.5H143c4.14,0,7.5,3.36,7.5,7.5
			S147.14,88.07,143,88.07z"/>
		<path class="st1" d="M86.7,88.07h-0.14c-4.14,0-7.5-3.36-7.5-7.5s3.36-7.5,7.5-7.5h0.14c4.14,0,7.5,3.36,7.5,7.5
			S90.85,88.07,86.7,88.07z"/>
		<path class="st1" d="M114.85,88.07h-0.14c-4.14,0-7.5-3.36-7.5-7.5s3.36-7.5,7.5-7.5h0.14c4.14,0,7.5,3.36,7.5,7.5
			S118.99,88.07,114.85,88.07z"/>
	</g>
</g>
</svg>
