<?xml version="1.0" encoding="utf-8"?>
<!-- Generator: Adobe Illustrator 24.1.2, SVG Export Plug-In . SVG Version: 6.00 Build 0)  -->
<svg version="1.1" id="Warstwa_3" xmlns="http://www.w3.org/2000/svg" xmlns:xlink="http://www.w3.org/1999/xlink" x="0px" y="0px"
	 viewBox="0 0 430 430" style="enable-background:new 0 0 430 430;" xml:space="preserve">
<style type="text/css">
	.st0{fill:#000000;}
	.st1{fill:#121331;}
	.st2{fill:none;stroke:#000000;stroke-width:12;stroke-linecap:round;stroke-linejoin:round;stroke-miterlimit:10;}
	.st3{fill:none;stroke:#121331;stroke-width:12;stroke-linecap:round;stroke-linejoin:round;stroke-miterlimit:10;}
	.st4{fill:#000000;}
	.st5{fill:#FFFFFF;stroke:#000000;stroke-width:12;stroke-linecap:round;stroke-linejoin:round;stroke-miterlimit:10;}
</style>
<g>
	<path class="st1" d="M352.71,48.88H77.29c-15.66,0-28.41,12.74-28.41,28.41v275.42c0,15.66,12.74,28.41,28.41,28.41h275.42
		c15.66,0,28.41-12.74,28.41-28.41V77.29C381.12,61.62,368.38,48.88,352.71,48.88z M77.29,60.88h275.42
		c9.05,0,16.41,7.36,16.41,16.41v22.97H60.88V77.29C60.88,68.24,68.24,60.88,77.29,60.88z M352.71,369.12H77.29
		c-9.05,0-16.41-7.36-16.41-16.41V112.25h308.24v240.46C369.12,361.76,361.76,369.12,352.71,369.12z"/>
	<g>
		<path class="st0" d="M143,88.07h-0.14c-4.14,0-7.5-3.36-7.5-7.5s3.36-7.5,7.5-7.5H143c4.14,0,7.5,3.36,7.5,7.5
			S147.14,88.07,143,88.07z"/>
		<path class="st0" d="M86.7,88.07h-0.14c-4.14,0-7.5-3.36-7.5-7.5s3.36-7.5,7.5-7.5h0.14c4.14,0,7.5,3.36,7.5,7.5
			S90.85,88.07,86.7,88.07z"/>
		<path class="st0" d="M114.85,88.07h-0.14c-4.14,0-7.5-3.36-7.5-7.5s3.36-7.5,7.5-7.5h0.14c4.14,0,7.5,3.36,7.5,7.5
			S118.99,88.07,114.85,88.07z"/>
	</g>
	<g>
		<path class="st1" d="M318.01,157.3H111.99c-3.31,0-6-2.69-6-6s2.69-6,6-6h206.01c3.31,0,6,2.69,6,6S321.32,157.3,318.01,157.3z"/>
		<path class="st1" d="M318.01,197.71H111.99c-3.31,0-6-2.69-6-6s2.69-6,6-6h206.01c3.31,0,6,2.69,6,6S321.32,197.71,318.01,197.71z
			"/>
		<path class="st1" d="M218,238.13H111.99c-3.31,0-6-2.69-6-6s2.69-6,6-6H218c3.31,0,6,2.69,6,6S221.32,238.13,218,238.13z"/>
		<path class="st1" d="M318.01,238.13h-56.26c-3.31,0-6-2.69-6-6s2.69-6,6-6h56.26c3.31,0,6,2.69,6,6S321.32,238.13,318.01,238.13z"
			/>
	</g>
	<path class="st1" d="M307.88,348.43H122.12c-9.93,0-18-8.08-18-18v-48.86c0-9.92,8.07-18,18-18h185.75c9.93,0,18,8.08,18,18v48.86
		C325.88,340.36,317.8,348.43,307.88,348.43z M122.12,275.58c-3.31,0-6,2.69-6,6v48.86c0,3.31,2.69,6,6,6h185.75c3.31,0,6-2.69,6-6
		v-48.86c0-3.31-2.69-6-6-6H122.12z"/>
	<g>
		<path class="st0" d="M211.89,320.74l-3.49-8.2c-0.01-0.02-0.02-0.05-0.03-0.07l-10.74-25.24c-0.93-2.19-3.07-3.62-5.45-3.65
			c-2.35,0.01-4.55,1.35-5.54,3.52l-15.24,33.51c-1.37,3.02-0.04,6.57,2.98,7.95c3.02,1.37,6.57,0.04,7.95-2.98l2.15-4.73h14.41
			l1.96,4.59c0.97,2.28,3.19,3.65,5.52,3.65c0.78,0,1.58-0.16,2.35-0.48C211.77,327.31,213.19,323.79,211.89,320.74z M189.94,308.84
			l1.99-4.37l1.86,4.37H189.94z"/>
		<path class="st0" d="M236.37,329.09h-9.08c-3.31,0-6-2.69-6-6v-33.51c0-3.31,2.69-6,6-6h9.08c12.55,0,22.76,10.21,22.76,22.76
			S248.92,329.09,236.37,329.09z M233.29,317.09h3.08c5.93,0,10.76-4.83,10.76-10.76c0-5.93-4.83-10.76-10.76-10.76h-3.08V317.09z"
			/>
	</g>
</g>
</svg>
